<?xml version="1.0" encoding="iso-8859-1"?>
<!-- Generator: Adobe Illustrator 19.0.0, SVG Export Plug-In . SVG Version: 6.00 Build 0)  -->
<svg version="1.1" id="Capa_1" xmlns="http://www.w3.org/2000/svg" xmlns:xlink="http://www.w3.org/1999/xlink" x="0px" y="0px"
	 viewBox="0 0 512 512" style="enable-background:new 0 0 512 512;" xml:space="preserve">
<rect x="10" y="10" style="fill:#F1FBFF;" width="492" height="492"/>
<g>
	<rect x="112" y="106" style="fill:#86DDFF;" width="48" height="126"/>
	<rect x="241.89" y="106" style="fill:#86DDFF;" width="38" height="126"/>
	<rect x="400" y="106" style="fill:#86DDFF;" width="48" height="126"/>
	<rect x="112" y="280" style="fill:#86DDFF;" width="48" height="126"/>
	<rect x="241.89" y="280" style="fill:#86DDFF;" width="38" height="126"/>
	<rect x="400" y="280" style="fill:#86DDFF;" width="48" height="126"/>
</g>
<rect x="10" y="232" style="fill:#FF5D5D;" width="492" height="48"/>
<path d="M360.57,396c-2.63,0-5.21,1.07-7.07,2.93c-1.86,1.86-2.93,4.44-2.93,7.07s1.07,5.21,2.93,7.07
	c1.86,1.86,4.44,2.93,7.07,2.93s5.21-1.07,7.07-2.93c1.86-1.86,2.93-4.44,2.93-7.07s-1.07-5.21-2.93-7.07
	C365.78,397.07,363.2,396,360.57,396z"/>
<path d="M10,74.012c5.523,0,10-4.477,10-10V20h44.012c5.523,0,10-4.477,10-10s-4.477-10-10-10H10C4.477,0,0,4.477,0,10v54.012
	C0,69.535,4.477,74.012,10,74.012z"/>
<path d="M502,0h-54.012c-5.523,0-10,4.477-10,10s4.477,10,10,10H492v44.012c0,5.523,4.477,10,10,10s10-4.477,10-10V10
	C512,4.477,507.523,0,502,0z"/>
<path d="M502,437.988c-5.523,0-10,4.477-10,10V492h-44.012c-5.523,0-10,4.477-10,10s4.477,10,10,10H502c5.523,0,10-4.477,10-10
	v-54.012C512,442.465,507.523,437.988,502,437.988z"/>
<path d="M64.012,492H20v-44.012c0-5.523-4.477-10-10-10s-10,4.477-10,10V502c0,5.523,4.477,10,10,10h54.012c5.523,0,10-4.477,10-10
	S69.535,492,64.012,492z"/>
<path d="M502,222h-44V106c0-5.523-4.477-10-10-10h-48c-5.523,0-10,4.477-10,10v116h-19.431V106c0-5.523-4.477-10-10-10
	s-10,4.477-10,10v116h-20V106c0-5.523-4.477-10-10-10s-10,4.477-10,10v116H289.89V106c0-5.523-4.477-10-10-10h-38
	c-5.523,0-10,4.477-10,10v116h-20V106c0-5.523-4.477-10-10-10s-10,4.477-10,10v116H170V106c0-5.523-4.477-10-10-10h-48
	c-5.523,0-10,4.477-10,10v116H74v-82.333c0-5.523-4.477-10-10-10s-10,4.477-10,10V222H10c-5.523,0-10,4.477-10,10v48
	c0,5.523,4.477,10,10,10h44v116c0,5.523,4.477,10,10,10s10-4.477,10-10V290h28v116c0,5.523,4.477,10,10,10h48
	c5.523,0,10-4.477,10-10V290h21.89v116c0,5.523,4.477,10,10,10s10-4.477,10-10V290h20v116c0,5.523,4.477,10,10,10h38
	c5.523,0,10-4.477,10-10V290h20.679v116c0,5.523,4.477,10,10,10s10-4.477,10-10V290h20v80.5c0,5.523,4.477,10,10,10s10-4.477,10-10
	V290H390v116c0,5.523,4.477,10,10,10h48c5.523,0,10-4.477,10-10V290h44c5.523,0,10-4.477,10-10v-48C512,226.477,507.523,222,502,222
	z M410,116h28v106h-28V116z M251.89,116h18v106h-18L251.89,116L251.89,116z M122,116h28v106h-28V116z M150,396h-28V290h28V396z
	 M269.89,396h-18V290h18V396z M438,396h-28V290h28V396z M492,270H20v-28h472V270z"/>
<path d="M64,96c-2.63,0-5.21,1.07-7.07,2.93S54,103.37,54,106s1.07,5.21,2.93,7.07S61.37,116,64,116c2.63,0,5.21-1.07,7.07-2.93
	S74,108.63,74,106s-1.07-5.21-2.93-7.07S66.63,96,64,96z"/>
<g>
</g>
<g>
</g>
<g>
</g>
<g>
</g>
<g>
</g>
<g>
</g>
<g>
</g>
<g>
</g>
<g>
</g>
<g>
</g>
<g>
</g>
<g>
</g>
<g>
</g>
<g>
</g>
<g>
</g>
</svg>
