<?xml version="1.0" encoding="iso-8859-1"?>
<!-- Generator: Adobe Illustrator 19.0.0, SVG Export Plug-In . SVG Version: 6.00 Build 0)  -->
<svg version="1.1" id="Capa_1" xmlns="http://www.w3.org/2000/svg" xmlns:xlink="http://www.w3.org/1999/xlink" x="0px" y="0px"
	 viewBox="0 0 512 512" style="enable-background:new 0 0 512 512;" xml:space="preserve">
<path style="fill:#FEA832;" d="M295.385,0h-78.769c-40.719,0-73.846,33.127-73.846,73.846V256c0,8.157,6.613,14.769,14.769,14.769
	h196.923c8.157,0,14.769-6.613,14.769-14.769V73.846C369.231,33.127,336.103,0,295.385,0z"/>
<path style="fill:#E88F23;" d="M295.385,0H256v270.769h98.462c8.157,0,14.769-6.613,14.769-14.769V73.846
	C369.231,33.127,336.103,0,295.385,0z"/>
<path style="fill:#D2DCE1;" d="M344.615,379.077h-73.846v-44.308c0-8.157-6.613-14.769-14.769-14.769s-14.769,6.613-14.769,14.769
	v44.308h-73.846c-24.431,0-44.308,19.876-44.308,44.308v29.538c0,8.157,6.613,14.769,14.769,14.769
	c8.157,0,14.769-6.613,14.769-14.769v-29.538c0-8.144,6.625-14.769,14.769-14.769h73.846v44.308c0,8.157,6.613,14.769,14.769,14.769
	s14.769-6.613,14.769-14.769v-44.308h73.846c8.144,0,14.769,6.625,14.769,14.769v29.538c0,8.157,6.613,14.769,14.769,14.769
	s14.769-6.613,14.769-14.769v-29.538C388.923,398.953,369.047,379.077,344.615,379.077z"/>
<g>
	<path style="fill:#B9C3CD;" d="M270.769,452.923v-44.308h73.846c8.144,0,14.769,6.625,14.769,14.769v29.538
		c0,8.157,6.613,14.769,14.769,14.769s14.769-6.613,14.769-14.769v-29.538c0-24.431-19.876-44.308-44.308-44.308h-73.846v-44.308
		c0-8.157-6.613-14.769-14.769-14.769v147.692C264.157,467.692,270.769,461.08,270.769,452.923z"/>
	<path style="fill:#B9C3CD;" d="M393.846,349.538c-8.157,0-14.769-6.613-14.769-14.769S385.69,320,393.846,320
		c24.431,0,44.308-19.876,44.308-44.308v-39.385c0-8.157,6.613-14.769,14.769-14.769c8.157,0,14.769,6.613,14.769,14.769v39.385
		C467.692,316.411,434.565,349.538,393.846,349.538z"/>
</g>
<path style="fill:#D2DCE1;" d="M118.154,349.538c-40.719,0-73.846-33.127-73.846-73.846v-39.385c0-8.157,6.613-14.769,14.769-14.769
	s14.769,6.613,14.769,14.769v39.385c0,24.431,19.876,44.308,44.308,44.308c8.157,0,14.769,6.613,14.769,14.769
	S126.31,349.538,118.154,349.538z"/>
<path style="fill:#753205;" d="M477.538,162.462h-49.231c-19.002,0-34.462,15.459-34.462,34.462v39.385
	c0,8.157,6.613,14.769,14.769,14.769h88.615c8.157,0,14.769-6.613,14.769-14.769v-39.385
	C512,177.921,496.541,162.462,477.538,162.462z"/>
<g>
	<path style="fill:#984B0E;" d="M83.692,162.462H34.462C15.459,162.462,0,177.921,0,196.923v39.385
		c0,8.157,6.613,14.769,14.769,14.769h88.615c8.157,0,14.769-6.613,14.769-14.769v-39.385
		C118.154,177.921,102.694,162.462,83.692,162.462z"/>
	<path style="fill:#984B0E;" d="M364.308,241.231H147.692c-24.431,0-44.308,19.876-44.308,44.308v49.231
		c0,8.157,6.613,14.769,14.769,14.769h275.692c8.157,0,14.769-6.613,14.769-14.769v-49.231
		C408.615,261.107,388.739,241.231,364.308,241.231z"/>
</g>
<path style="fill:#753205;" d="M364.308,241.231H256v108.308h137.846c8.157,0,14.769-6.613,14.769-14.769v-49.231
	C408.615,261.107,388.739,241.231,364.308,241.231z"/>
<g>
	<path style="fill:#A0A0A5;" d="M137.846,438.154c-20.36,0-36.923,16.563-36.923,36.923c0,20.36,16.563,36.923,36.923,36.923
		s36.923-16.563,36.923-36.923C174.769,454.717,158.206,438.154,137.846,438.154z"/>
	<path style="fill:#A0A0A5;" d="M256,438.154c-20.36,0-36.923,16.563-36.923,36.923C219.077,495.437,235.64,512,256,512
		s36.923-16.563,36.923-36.923C292.923,454.717,276.36,438.154,256,438.154z"/>
</g>
<g>
	<path style="fill:#7D8287;" d="M292.923,475.077c0-20.36-16.563-36.923-36.923-36.923V512
		C276.36,512,292.923,495.437,292.923,475.077z"/>
	<path style="fill:#7D8287;" d="M374.154,438.154c-20.36,0-36.923,16.563-36.923,36.923c0,20.36,16.563,36.923,36.923,36.923
		c20.36,0,36.923-16.563,36.923-36.923C411.077,454.717,394.514,438.154,374.154,438.154z"/>
</g>
<g>
</g>
<g>
</g>
<g>
</g>
<g>
</g>
<g>
</g>
<g>
</g>
<g>
</g>
<g>
</g>
<g>
</g>
<g>
</g>
<g>
</g>
<g>
</g>
<g>
</g>
<g>
</g>
<g>
</g>
</svg>
